<svg xmlns="http://www.w3.org/2000/svg" viewBox="0 0 240 240" role="img" aria-label="Cat with hearts">
  <defs>
    <linearGradient id="bg" x1="0" y1="0" x2="1" y2="1">
      <stop offset="0" stop-color="#fce7f3"/>
      <stop offset="1" stop-color="#e9d5ff"/>
    </linearGradient>
    <linearGradient id="fur" x1="0" y1="0" x2="0" y2="1">
      <stop offset="0" stop-color="#fff7ed"/>
      <stop offset="1" stop-color="#fde68a"/>
    </linearGradient>
    <filter id="shadow" x="-20%" y="-20%" width="140%" height="140%">
      <feDropShadow dx="0" dy="8" stdDeviation="8" flood-color="#000" flood-opacity=".18"/>
    </filter>
  </defs>

  <rect width="240" height="240" rx="28" fill="url(#bg)"/>
  <g filter="url(#shadow)">
    <!-- hearts -->
    <path d="M62 92c-10-8-12-22-2-30 7-6 18-4 24 5 6-9 17-11 24-5 10 8 8 22-2 30-9 8-22 18-22 18S71 100 62 92Z" fill="#fb7185" opacity=".9"/>
    <path d="M158 98c-8-6-9-18-1-24 6-5 14-3 19 4 5-7 13-9 19-4 8 6 7 18-1 24-7 6-18 14-18 14s-11-8-18-14Z" fill="#f472b6" opacity=".85"/>

    <!-- ears -->
    <path d="M62 92c-6-22 2-50 18-64 14 14 22 42 18 64" fill="url(#fur)" stroke="#a16207" stroke-opacity=".35" stroke-width="3" stroke-linejoin="round"/>
    <path d="M178 92c6-22-2-50-18-64-14 14-22 42-18 64" fill="url(#fur)" stroke="#a16207" stroke-opacity=".35" stroke-width="3" stroke-linejoin="round"/>
    <path d="M71 54c-4-10 0-24 9-32 8 8 13 22 10 33" fill="#fecdd3" opacity=".75"/>
    <path d="M169 54c4-10 0-24-9-32-8 8-13 22-10 33" fill="#fecdd3" opacity=".75"/>

    <!-- face -->
    <path d="M120 74c-44 0-74 30-74 74 0 44 30 74 74 74s74-30 74-74c0-44-30-74-74-74Z" fill="url(#fur)" stroke="#a16207" stroke-opacity=".35" stroke-width="3"/>

    <!-- happy eyes -->
    <path d="M78 142c10 10 26 10 36 0" fill="none" stroke="#111827" stroke-width="6" stroke-linecap="round" opacity=".85"/>
    <path d="M126 142c10 10 26 10 36 0" fill="none" stroke="#111827" stroke-width="6" stroke-linecap="round" opacity=".85"/>

    <!-- blush -->
    <ellipse cx="78" cy="160" rx="14" ry="10" fill="#fb7185" opacity=".25"/>
    <ellipse cx="162" cy="160" rx="14" ry="10" fill="#fb7185" opacity=".25"/>

    <!-- nose + mouth -->
    <path d="M120 155l-9 7c6 6 12 6 18 0Z" fill="#fb7185" opacity=".95"/>
    <path d="M111 168c-12 10-24 12-38 6" fill="none" stroke="#9a3412" stroke-opacity=".55" stroke-width="4" stroke-linecap="round"/>
    <path d="M129 168c12 10 24 12 38 6" fill="none" stroke="#9a3412" stroke-opacity=".55" stroke-width="4" stroke-linecap="round"/>

    <!-- whiskers -->
    <path d="M60 156c18-6 32-7 44-4" fill="none" stroke="#9a3412" stroke-opacity=".45" stroke-width="3" stroke-linecap="round"/>
    <path d="M60 170c18-2 32-1 44 4" fill="none" stroke="#9a3412" stroke-opacity=".45" stroke-width="3" stroke-linecap="round"/>
    <path d="M180 156c-18-6-32-7-44-4" fill="none" stroke="#9a3412" stroke-opacity=".45" stroke-width="3" stroke-linecap="round"/>
    <path d="M180 170c-18-2-32-1-44 4" fill="none" stroke="#9a3412" stroke-opacity=".45" stroke-width="3" stroke-linecap="round"/>
  </g>
</svg>
